<svg width="25" height="25" viewBox="0 0 25 25" fill="none" xmlns="http://www.w3.org/2000/svg">
<path d="M13.0201 19.3225L12.9201 19.4225L12.8101 19.3225C8.06007 15.0125 4.92007 12.1625 4.92007 9.27246C4.92007 7.27246 6.42007 5.77246 8.42007 5.77246C9.96007 5.77246 11.4601 6.77246 11.9901 8.13246H13.8501C14.3801 6.77246 15.8801 5.77246 17.4201 5.77246C19.4201 5.77246 20.9201 7.27246 20.9201 9.27246C20.9201 12.1625 17.7801 15.0125 13.0201 19.3225ZM17.4201 3.77246C15.6801 3.77246 14.0101 4.58246 12.9201 5.85246C11.8301 4.58246 10.1601 3.77246 8.42007 3.77246C5.34007 3.77246 2.92007 6.18246 2.92007 9.27246C2.92007 13.0425 6.32007 16.1325 11.4701 20.8025L12.9201 22.1225L14.3701 20.8025C19.5201 16.1325 22.9201 13.0425 22.9201 9.27246C22.9201 6.18246 20.5001 3.77246 17.4201 3.77246Z" fill="white"/>
</svg>
