<svg width="25" height="25" viewBox="0 0 25 25" fill="none" xmlns="http://www.w3.org/2000/svg">
<path d="M20.2267 2.33057H8.22675C7.69631 2.33057 7.1876 2.54128 6.81253 2.91635C6.43746 3.29143 6.22675 3.80013 6.22675 4.33057V16.3306C6.22675 16.861 6.43746 17.3697 6.81253 17.7448C7.1876 18.1199 7.69631 18.3306 8.22675 18.3306H20.2267C20.7572 18.3306 21.2659 18.1199 21.641 17.7448C22.016 17.3697 22.2267 16.861 22.2267 16.3306V4.33057C22.2267 3.80013 22.016 3.29143 21.641 2.91635C21.2659 2.54128 20.7572 2.33057 20.2267 2.33057ZM20.2267 16.3306H8.22675V4.33057H20.2267M12.7267 15.3306C13.3898 15.3306 14.0257 15.0672 14.4945 14.5983C14.9634 14.1295 15.2267 13.4936 15.2267 12.8306V7.33057H18.2267V5.33057H14.2267V10.8306C13.8067 10.5206 13.2967 10.3306 12.7267 10.3306C12.0637 10.3306 11.4278 10.594 10.959 11.0628C10.4901 11.5316 10.2267 12.1675 10.2267 12.8306C10.2267 13.4936 10.4901 14.1295 10.959 14.5983C11.4278 15.0672 12.0637 15.3306 12.7267 15.3306ZM4.22675 6.33057H2.22675V20.3306C2.22675 20.861 2.43746 21.3697 2.81253 21.7448C3.1876 22.1199 3.69631 22.3306 4.22675 22.3306H18.2267V20.3306H4.22675" fill="white"/>
</svg>
