<svg width="25" height="25" viewBox="0 0 25 25" fill="none" xmlns="http://www.w3.org/2000/svg">
<path d="M9.72675 3.80176C11.4507 3.80176 13.104 4.48658 14.3229 5.70556C15.5419 6.92455 16.2267 8.57785 16.2267 10.3018C16.2267 11.9118 15.6367 13.3918 14.6667 14.5318L14.9367 14.8018H15.7267L20.7267 19.8018L19.2267 21.3018L14.2267 16.3018V15.5118L13.9567 15.2418C12.8167 16.2118 11.3367 16.8018 9.72675 16.8018C8.00284 16.8018 6.34954 16.1169 5.13055 14.898C3.91156 13.679 3.22675 12.0257 3.22675 10.3018C3.22675 8.57785 3.91156 6.92455 5.13055 5.70556C6.34954 4.48658 8.00284 3.80176 9.72675 3.80176ZM9.72675 5.80176C7.22675 5.80176 5.22675 7.80176 5.22675 10.3018C5.22675 12.8018 7.22675 14.8018 9.72675 14.8018C12.2267 14.8018 14.2267 12.8018 14.2267 10.3018C14.2267 7.80176 12.2267 5.80176 9.72675 5.80176Z" fill="#f8eeec"/>
</svg>
